{
  "asset": {
    "version": "2.0",
    "generator": "convert-model-json-to-gltf-v1"
  },
  "scene": 0,
  "scenes": [
    {
      "nodes": [
        0
      ]
    }
  ],
  "nodes": [
    {
      "name": "MilkshapeExported",
      "mesh": 0
    }
  ],
  "meshes": [
    {
      "name": "MilkshapeExported",
      "primitives": [
        {
          "attributes": {
            "POSITION": 0,
            "NORMAL": 1,
            "TEXCOORD_0": 2
          },
          "indices": 3,
          "material": 0
        },
        {
          "attributes": {
            "POSITION": 4,
            "NORMAL": 5,
            "TEXCOORD_0": 6
          },
          "indices": 7,
          "material": 0
        }
      ]
    }
  ],
  "materials": [
    {
      "pbrMetallicRoughness": {
        "baseColorFactor": [
          1,
          1,
          1,
          1
        ],
        "metallicFactor": 0,
        "roughnessFactor": 1,
        "baseColorTexture": {
          "index": 0
        }
      }
    }
  ],
  "samplers": [
    {
      "magFilter": 9729,
      "minFilter": 9987,
      "wrapS": 10497,
      "wrapT": 10497
    }
  ],
  "images": [
    {
      "uri": "../textures/5c0f1ee8.png"
    }
  ],
  "textures": [
    {
      "sampler": 0,
      "source": 0
    }
  ],
  "buffers": [
    {
      "uri": "[ake]330_mdx.bin",
      "byteLength": 44848
    }
  ],
  "bufferViews": [
    {
      "buffer": 0,
      "byteOffset": 0,
      "byteLength": 5304,
      "target": 34962
    },
    {
      "buffer": 0,
      "byteOffset": 5304,
      "byteLength": 5304,
      "target": 34962
    },
    {
      "buffer": 0,
      "byteOffset": 10608,
      "byteLength": 3536,
      "target": 34962
    },
    {
      "buffer": 0,
      "byteOffset": 14144,
      "byteLength": 8280,
      "target": 34963
    },
    {
      "buffer": 0,
      "byteOffset": 22424,
      "byteLength": 5304,
      "target": 34962
    },
    {
      "buffer": 0,
      "byteOffset": 27728,
      "byteLength": 5304,
      "target": 34962
    },
    {
      "buffer": 0,
      "byteOffset": 33032,
      "byteLength": 3536,
      "target": 34962
    },
    {
      "buffer": 0,
      "byteOffset": 36568,
      "byteLength": 8280,
      "target": 34963
    }
  ],
  "accessors": [
    {
      "bufferView": 0,
      "componentType": 5126,
      "count": 442,
      "type": "VEC3",
      "min": [
        -70.97930145263672,
        -250.0449981689453,
        -60.39699935913086
      ],
      "max": [
        -0.041368599981069565,
        -1.0705699920654297,
        142.65899658203125
      ]
    },
    {
      "bufferView": 1,
      "componentType": 5126,
      "count": 442,
      "type": "VEC3"
    },
    {
      "bufferView": 2,
      "componentType": 5126,
      "count": 442,
      "type": "VEC2"
    },
    {
      "bufferView": 3,
      "componentType": 5125,
      "count": 2070,
      "type": "SCALAR"
    },
    {
      "bufferView": 4,
      "componentType": 5126,
      "count": 442,
      "type": "VEC3",
      "min": [
        -71.17169952392578,
        1.10247004032135,
        -60.39699935913086
      ],
      "max": [
        -0.04559910297393799,
        250.03599548339844,
        142.65899658203125
      ]
    },
    {
      "bufferView": 5,
      "componentType": 5126,
      "count": 442,
      "type": "VEC3"
    },
    {
      "bufferView": 6,
      "componentType": 5126,
      "count": 442,
      "type": "VEC2"
    },
    {
      "bufferView": 7,
      "componentType": 5125,
      "count": 2070,
      "type": "SCALAR"
    }
  ]
}