{
  "asset": {
    "version": "2.0",
    "generator": "convert-model-json-to-gltf-v1"
  },
  "scene": 0,
  "scenes": [
    {
      "nodes": [
        0
      ]
    }
  ],
  "nodes": [
    {
      "name": "Model By:AZ[QQ3358167564] 횓쨈횎횣횊짢횉챘횓챨횏쩍횞횚횎쨔횙횄",
      "mesh": 0
    }
  ],
  "meshes": [
    {
      "name": "Model By:AZ[QQ3358167564] 횓쨈횎횣횊짢횉챘횓챨횏쩍횞횚횎쨔횙횄",
      "primitives": [
        {
          "attributes": {
            "POSITION": 0,
            "NORMAL": 1,
            "TEXCOORD_0": 2
          },
          "indices": 3,
          "material": 0
        }
      ]
    }
  ],
  "materials": [
    {
      "pbrMetallicRoughness": {
        "baseColorFactor": [
          1,
          1,
          1,
          1
        ],
        "metallicFactor": 0,
        "roughnessFactor": 1,
        "baseColorTexture": {
          "index": 0
        }
      }
    }
  ],
  "samplers": [
    {
      "magFilter": 9729,
      "minFilter": 9987,
      "wrapS": 10497,
      "wrapT": 10497
    }
  ],
  "images": [
    {
      "uri": "../textures/AZ_Petal4.png"
    }
  ],
  "textures": [
    {
      "sampler": 0,
      "source": 0
    }
  ],
  "buffers": [
    {
      "uri": "AZ_G029.MDX_mdx.bin",
      "byteLength": 288616
    }
  ],
  "bufferViews": [
    {
      "buffer": 0,
      "byteOffset": 0,
      "byteLength": 72960,
      "target": 34962
    },
    {
      "buffer": 0,
      "byteOffset": 72960,
      "byteLength": 72960,
      "target": 34962
    },
    {
      "buffer": 0,
      "byteOffset": 145920,
      "byteLength": 48640,
      "target": 34962
    },
    {
      "buffer": 0,
      "byteOffset": 194560,
      "byteLength": 94056,
      "target": 34963
    }
  ],
  "accessors": [
    {
      "bufferView": 0,
      "componentType": 5126,
      "count": 6080,
      "type": "VEC3",
      "min": [
        -127.63428497314453,
        -129.74754333496094,
        0.550349235534668
      ],
      "max": [
        125.44701385498047,
        126.12698364257812,
        17.924312591552734
      ]
    },
    {
      "bufferView": 1,
      "componentType": 5126,
      "count": 6080,
      "type": "VEC3"
    },
    {
      "bufferView": 2,
      "componentType": 5126,
      "count": 6080,
      "type": "VEC2"
    },
    {
      "bufferView": 3,
      "componentType": 5125,
      "count": 23514,
      "type": "SCALAR"
    }
  ]
}