{
  "asset": {
    "version": "2.0",
    "generator": "convert-model-json-to-gltf-v1"
  },
  "scene": 0,
  "scenes": [
    {
      "nodes": [
        0
      ]
    }
  ],
  "nodes": [
    {
      "name": "Model By:AZ[QQ3358167564] Î´ÊÚÈ¨ÇëÎðË½×ÔÊ¹ÓÃ",
      "mesh": 0
    }
  ],
  "meshes": [
    {
      "name": "Model By:AZ[QQ3358167564] Î´ÊÚÈ¨ÇëÎðË½×ÔÊ¹ÓÃ",
      "primitives": [
        {
          "attributes": {
            "POSITION": 0,
            "NORMAL": 1,
            "TEXCOORD_0": 2
          },
          "indices": 3,
          "material": 0
        },
        {
          "attributes": {
            "POSITION": 4,
            "NORMAL": 5,
            "TEXCOORD_0": 6
          },
          "indices": 7,
          "material": 1
        }
      ]
    }
  ],
  "materials": [
    {
      "pbrMetallicRoughness": {
        "baseColorFactor": [
          1,
          1,
          1,
          1
        ],
        "metallicFactor": 0,
        "roughnessFactor": 1,
        "baseColorTexture": {
          "index": 0
        }
      }
    },
    {
      "pbrMetallicRoughness": {
        "baseColorFactor": [
          1,
          1,
          1,
          1
        ],
        "metallicFactor": 0,
        "roughnessFactor": 1
      }
    }
  ],
  "samplers": [
    {
      "magFilter": 9729,
      "minFilter": 9987,
      "wrapS": 10497,
      "wrapT": 10497
    }
  ],
  "images": [
    {
      "uri": "../textures/h.png"
    }
  ],
  "textures": [
    {
      "sampler": 0,
      "source": 0
    }
  ],
  "buffers": [
    {
      "uri": "AZ_G030_mdx.bin",
      "byteLength": 89640
    }
  ],
  "bufferViews": [
    {
      "buffer": 0,
      "byteOffset": 0,
      "byteLength": 72,
      "target": 34962
    },
    {
      "buffer": 0,
      "byteOffset": 72,
      "byteLength": 72,
      "target": 34962
    },
    {
      "buffer": 0,
      "byteOffset": 144,
      "byteLength": 48,
      "target": 34962
    },
    {
      "buffer": 0,
      "byteOffset": 192,
      "byteLength": 24,
      "target": 34963
    },
    {
      "buffer": 0,
      "byteOffset": 216,
      "byteLength": 24624,
      "target": 34962
    },
    {
      "buffer": 0,
      "byteOffset": 24840,
      "byteLength": 24624,
      "target": 34962
    },
    {
      "buffer": 0,
      "byteOffset": 49464,
      "byteLength": 16416,
      "target": 34962
    },
    {
      "buffer": 0,
      "byteOffset": 65880,
      "byteLength": 23760,
      "target": 34963
    }
  ],
  "accessors": [
    {
      "bufferView": 0,
      "componentType": 5126,
      "count": 6,
      "type": "VEC3",
      "min": [
        -116.50357818603516,
        -117.24075317382812,
        9.999999046325684
      ],
      "max": [
        117.3041763305664,
        116.56674194335938,
        9.999999046325684
      ]
    },
    {
      "bufferView": 1,
      "componentType": 5126,
      "count": 6,
      "type": "VEC3"
    },
    {
      "bufferView": 2,
      "componentType": 5126,
      "count": 6,
      "type": "VEC2"
    },
    {
      "bufferView": 3,
      "componentType": 5125,
      "count": 6,
      "type": "SCALAR"
    },
    {
      "bufferView": 4,
      "componentType": 5126,
      "count": 2052,
      "type": "VEC3",
      "min": [
        -87.20986938476562,
        -86.62206268310547,
        15
      ],
      "max": [
        87.20984649658203,
        86.62206268310547,
        15
      ]
    },
    {
      "bufferView": 5,
      "componentType": 5126,
      "count": 2052,
      "type": "VEC3"
    },
    {
      "bufferView": 6,
      "componentType": 5126,
      "count": 2052,
      "type": "VEC2"
    },
    {
      "bufferView": 7,
      "componentType": 5125,
      "count": 5940,
      "type": "SCALAR"
    }
  ]
}