{
  "asset": {
    "version": "2.0",
    "generator": "convert-model-json-to-gltf-v1"
  },
  "scene": 0,
  "scenes": [
    {
      "nodes": [
        0
      ]
    }
  ],
  "nodes": [
    {
      "name": "PA_Arcana_Model",
      "mesh": 0
    }
  ],
  "meshes": [
    {
      "name": "PA_Arcana_Model",
      "primitives": [
        {
          "attributes": {
            "POSITION": 0,
            "NORMAL": 1,
            "TEXCOORD_0": 2
          },
          "indices": 3,
          "material": 0
        },
        {
          "attributes": {
            "POSITION": 4,
            "NORMAL": 5,
            "TEXCOORD_0": 6
          },
          "indices": 7,
          "material": 0
        },
        {
          "attributes": {
            "POSITION": 8,
            "NORMAL": 9,
            "TEXCOORD_0": 10
          },
          "indices": 11,
          "material": 0
        },
        {
          "attributes": {
            "POSITION": 12,
            "NORMAL": 13,
            "TEXCOORD_0": 14
          },
          "indices": 15,
          "material": 0
        },
        {
          "attributes": {
            "POSITION": 16,
            "NORMAL": 17,
            "TEXCOORD_0": 18
          },
          "indices": 19,
          "material": 0
        },
        {
          "attributes": {
            "POSITION": 20,
            "NORMAL": 21,
            "TEXCOORD_0": 22
          },
          "indices": 23,
          "material": 0
        },
        {
          "attributes": {
            "POSITION": 24,
            "NORMAL": 25,
            "TEXCOORD_0": 26
          },
          "indices": 27,
          "material": 0
        },
        {
          "attributes": {
            "POSITION": 28,
            "NORMAL": 29,
            "TEXCOORD_0": 30
          },
          "indices": 31,
          "material": 1
        },
        {
          "attributes": {
            "POSITION": 32,
            "NORMAL": 33,
            "TEXCOORD_0": 34
          },
          "indices": 35,
          "material": 1
        },
        {
          "attributes": {
            "POSITION": 36,
            "NORMAL": 37,
            "TEXCOORD_0": 38
          },
          "indices": 39,
          "material": 1
        },
        {
          "attributes": {
            "POSITION": 40,
            "NORMAL": 41,
            "TEXCOORD_0": 42
          },
          "indices": 43,
          "material": 1
        },
        {
          "attributes": {
            "POSITION": 44,
            "NORMAL": 45,
            "TEXCOORD_0": 46
          },
          "indices": 47,
          "material": 2
        },
        {
          "attributes": {
            "POSITION": 48,
            "NORMAL": 49,
            "TEXCOORD_0": 50
          },
          "indices": 51,
          "material": 3
        }
      ]
    }
  ],
  "materials": [
    {
      "pbrMetallicRoughness": {
        "baseColorFactor": [
          1,
          1,
          1,
          1
        ],
        "metallicFactor": 0,
        "roughnessFactor": 1,
        "baseColorTexture": {
          "index": 0
        }
      }
    },
    {
      "pbrMetallicRoughness": {
        "baseColorFactor": [
          1,
          1,
          1,
          1
        ],
        "metallicFactor": 0,
        "roughnessFactor": 1,
        "baseColorTexture": {
          "index": 1
        }
      }
    },
    {
      "pbrMetallicRoughness": {
        "baseColorFactor": [
          1,
          1,
          1,
          1
        ],
        "metallicFactor": 0,
        "roughnessFactor": 1,
        "baseColorTexture": {
          "index": 2
        }
      }
    },
    {
      "pbrMetallicRoughness": {
        "baseColorFactor": [
          1,
          1,
          1,
          1
        ],
        "metallicFactor": 0,
        "roughnessFactor": 1,
        "baseColorTexture": {
          "index": 3
        }
      }
    }
  ],
  "samplers": [
    {
      "magFilter": 9729,
      "minFilter": 9987,
      "wrapS": 10497,
      "wrapT": 10497
    }
  ],
  "images": [
    {
      "uri": "../textures/Units_Nightelf_HeroWarden_pa_arcana_full_color.png"
    },
    {
      "uri": "../textures/Units_Nightelf_HeroWarden_DK Slash.png"
    },
    {
      "uri": "../textures/Units_Nightelf_HeroWarden_Lionheart CKCritStrike.png"
    },
    {
      "uri": "../textures/Units_Nightelf_HeroWarden_PA Crit Strike.png"
    }
  ],
  "textures": [
    {
      "sampler": 0,
      "source": 0
    },
    {
      "sampler": 0,
      "source": 1
    },
    {
      "sampler": 0,
      "source": 2
    },
    {
      "sampler": 0,
      "source": 3
    }
  ],
  "buffers": [
    {
      "uri": "herowarden_mdx.bin",
      "byteLength": 223508
    }
  ],
  "bufferViews": [
    {
      "buffer": 0,
      "byteOffset": 0,
      "byteLength": 11808,
      "target": 34962
    },
    {
      "buffer": 0,
      "byteOffset": 11808,
      "byteLength": 11808,
      "target": 34962
    },
    {
      "buffer": 0,
      "byteOffset": 23616,
      "byteLength": 7872,
      "target": 34962
    },
    {
      "buffer": 0,
      "byteOffset": 31488,
      "byteLength": 18144,
      "target": 34963
    },
    {
      "buffer": 0,
      "byteOffset": 49632,
      "byteLength": 7056,
      "target": 34962
    },
    {
      "buffer": 0,
      "byteOffset": 56688,
      "byteLength": 7056,
      "target": 34962
    },
    {
      "buffer": 0,
      "byteOffset": 63744,
      "byteLength": 4704,
      "target": 34962
    },
    {
      "buffer": 0,
      "byteOffset": 68448,
      "byteLength": 8256,
      "target": 34963
    },
    {
      "buffer": 0,
      "byteOffset": 76704,
      "byteLength": 5340,
      "target": 34962
    },
    {
      "buffer": 0,
      "byteOffset": 82044,
      "byteLength": 5340,
      "target": 34962
    },
    {
      "buffer": 0,
      "byteOffset": 87384,
      "byteLength": 3560,
      "target": 34962
    },
    {
      "buffer": 0,
      "byteOffset": 90944,
      "byteLength": 6792,
      "target": 34963
    },
    {
      "buffer": 0,
      "byteOffset": 97736,
      "byteLength": 4440,
      "target": 34962
    },
    {
      "buffer": 0,
      "byteOffset": 102176,
      "byteLength": 4440,
      "target": 34962
    },
    {
      "buffer": 0,
      "byteOffset": 106616,
      "byteLength": 2960,
      "target": 34962
    },
    {
      "buffer": 0,
      "byteOffset": 109576,
      "byteLength": 5952,
      "target": 34963
    },
    {
      "buffer": 0,
      "byteOffset": 115528,
      "byteLength": 10968,
      "target": 34962
    },
    {
      "buffer": 0,
      "byteOffset": 126496,
      "byteLength": 10968,
      "target": 34962
    },
    {
      "buffer": 0,
      "byteOffset": 137464,
      "byteLength": 7312,
      "target": 34962
    },
    {
      "buffer": 0,
      "byteOffset": 144776,
      "byteLength": 14916,
      "target": 34963
    },
    {
      "buffer": 0,
      "byteOffset": 159692,
      "byteLength": 12648,
      "target": 34962
    },
    {
      "buffer": 0,
      "byteOffset": 172340,
      "byteLength": 12648,
      "target": 34962
    },
    {
      "buffer": 0,
      "byteOffset": 184988,
      "byteLength": 8432,
      "target": 34962
    },
    {
      "buffer": 0,
      "byteOffset": 193420,
      "byteLength": 15984,
      "target": 34963
    },
    {
      "buffer": 0,
      "byteOffset": 209404,
      "byteLength": 3552,
      "target": 34962
    },
    {
      "buffer": 0,
      "byteOffset": 212956,
      "byteLength": 3552,
      "target": 34962
    },
    {
      "buffer": 0,
      "byteOffset": 216508,
      "byteLength": 2368,
      "target": 34962
    },
    {
      "buffer": 0,
      "byteOffset": 218876,
      "byteLength": 3720,
      "target": 34963
    },
    {
      "buffer": 0,
      "byteOffset": 222596,
      "byteLength": 48,
      "target": 34962
    },
    {
      "buffer": 0,
      "byteOffset": 222644,
      "byteLength": 48,
      "target": 34962
    },
    {
      "buffer": 0,
      "byteOffset": 222692,
      "byteLength": 32,
      "target": 34962
    },
    {
      "buffer": 0,
      "byteOffset": 222724,
      "byteLength": 24,
      "target": 34963
    },
    {
      "buffer": 0,
      "byteOffset": 222748,
      "byteLength": 48,
      "target": 34962
    },
    {
      "buffer": 0,
      "byteOffset": 222796,
      "byteLength": 48,
      "target": 34962
    },
    {
      "buffer": 0,
      "byteOffset": 222844,
      "byteLength": 32,
      "target": 34962
    },
    {
      "buffer": 0,
      "byteOffset": 222876,
      "byteLength": 24,
      "target": 34963
    },
    {
      "buffer": 0,
      "byteOffset": 222900,
      "byteLength": 48,
      "target": 34962
    },
    {
      "buffer": 0,
      "byteOffset": 222948,
      "byteLength": 48,
      "target": 34962
    },
    {
      "buffer": 0,
      "byteOffset": 222996,
      "byteLength": 32,
      "target": 34962
    },
    {
      "buffer": 0,
      "byteOffset": 223028,
      "byteLength": 24,
      "target": 34963
    },
    {
      "buffer": 0,
      "byteOffset": 223052,
      "byteLength": 48,
      "target": 34962
    },
    {
      "buffer": 0,
      "byteOffset": 223100,
      "byteLength": 48,
      "target": 34962
    },
    {
      "buffer": 0,
      "byteOffset": 223148,
      "byteLength": 32,
      "target": 34962
    },
    {
      "buffer": 0,
      "byteOffset": 223180,
      "byteLength": 24,
      "target": 34963
    },
    {
      "buffer": 0,
      "byteOffset": 223204,
      "byteLength": 48,
      "target": 34962
    },
    {
      "buffer": 0,
      "byteOffset": 223252,
      "byteLength": 48,
      "target": 34962
    },
    {
      "buffer": 0,
      "byteOffset": 223300,
      "byteLength": 32,
      "target": 34962
    },
    {
      "buffer": 0,
      "byteOffset": 223332,
      "byteLength": 24,
      "target": 34963
    },
    {
      "buffer": 0,
      "byteOffset": 223356,
      "byteLength": 48,
      "target": 34962
    },
    {
      "buffer": 0,
      "byteOffset": 223404,
      "byteLength": 48,
      "target": 34962
    },
    {
      "buffer": 0,
      "byteOffset": 223452,
      "byteLength": 32,
      "target": 34962
    },
    {
      "buffer": 0,
      "byteOffset": 223484,
      "byteLength": 24,
      "target": 34963
    }
  ],
  "accessors": [
    {
      "bufferView": 0,
      "componentType": 5126,
      "count": 984,
      "type": "VEC3",
      "min": [
        -19.40530014038086,
        -46.26459884643555,
        0.0460532009601593
      ],
      "max": [
        13.47130012512207,
        46.26449966430664,
        174.10000610351562
      ]
    },
    {
      "bufferView": 1,
      "componentType": 5126,
      "count": 984,
      "type": "VEC3"
    },
    {
      "bufferView": 2,
      "componentType": 5126,
      "count": 984,
      "type": "VEC2"
    },
    {
      "bufferView": 3,
      "componentType": 5125,
      "count": 4536,
      "type": "SCALAR"
    },
    {
      "bufferView": 4,
      "componentType": 5126,
      "count": 588,
      "type": "VEC3",
      "min": [
        -115.81400299072266,
        -4.43120002746582,
        -13.457599639892578
      ],
      "max": [
        14.919500350952148,
        4.430920124053955,
        57.00320053100586
      ]
    },
    {
      "bufferView": 5,
      "componentType": 5126,
      "count": 588,
      "type": "VEC3"
    },
    {
      "bufferView": 6,
      "componentType": 5126,
      "count": 588,
      "type": "VEC2"
    },
    {
      "bufferView": 7,
      "componentType": 5125,
      "count": 2064,
      "type": "SCALAR"
    },
    {
      "bufferView": 8,
      "componentType": 5126,
      "count": 445,
      "type": "VEC3",
      "min": [
        -31.271499633789062,
        -32.220001220703125,
        115.64800262451172
      ],
      "max": [
        9.657039642333984,
        32.22010040283203,
        169.88999938964844
      ]
    },
    {
      "bufferView": 9,
      "componentType": 5126,
      "count": 445,
      "type": "VEC3"
    },
    {
      "bufferView": 10,
      "componentType": 5126,
      "count": 445,
      "type": "VEC2"
    },
    {
      "bufferView": 11,
      "componentType": 5125,
      "count": 1698,
      "type": "SCALAR"
    },
    {
      "bufferView": 12,
      "componentType": 5126,
      "count": 370,
      "type": "VEC3",
      "min": [
        -41.72249984741211,
        -42.50429916381836,
        16.243999481201172
      ],
      "max": [
        3.174870014190674,
        46.93090057373047,
        145.72500610351562
      ]
    },
    {
      "bufferView": 13,
      "componentType": 5126,
      "count": 370,
      "type": "VEC3"
    },
    {
      "bufferView": 14,
      "componentType": 5126,
      "count": 370,
      "type": "VEC2"
    },
    {
      "bufferView": 15,
      "componentType": 5125,
      "count": 1488,
      "type": "SCALAR"
    },
    {
      "bufferView": 16,
      "componentType": 5126,
      "count": 914,
      "type": "VEC3",
      "min": [
        -42.5974006652832,
        -10.28030014038086,
        141.4340057373047
      ],
      "max": [
        9.86676025390625,
        10.28030014038086,
        190.25399780273438
      ]
    },
    {
      "bufferView": 17,
      "componentType": 5126,
      "count": 914,
      "type": "VEC3"
    },
    {
      "bufferView": 18,
      "componentType": 5126,
      "count": 914,
      "type": "VEC2"
    },
    {
      "bufferView": 19,
      "componentType": 5125,
      "count": 3729,
      "type": "SCALAR"
    },
    {
      "bufferView": 20,
      "componentType": 5126,
      "count": 1054,
      "type": "VEC3",
      "min": [
        -115.81400299072266,
        -4.43120002746582,
        -13.460200309753418
      ],
      "max": [
        14.662699699401855,
        4.430920124053955,
        57.00320053100586
      ]
    },
    {
      "bufferView": 21,
      "componentType": 5126,
      "count": 1054,
      "type": "VEC3"
    },
    {
      "bufferView": 22,
      "componentType": 5126,
      "count": 1054,
      "type": "VEC2"
    },
    {
      "bufferView": 23,
      "componentType": 5125,
      "count": 3996,
      "type": "SCALAR"
    },
    {
      "bufferView": 24,
      "componentType": 5126,
      "count": 296,
      "type": "VEC3",
      "min": [
        -1.0271199941635132,
        -19.399700164794922,
        82.35379791259766
      ],
      "max": [
        10.216500282287598,
        19.399700164794922,
        121.18800354003906
      ]
    },
    {
      "bufferView": 25,
      "componentType": 5126,
      "count": 296,
      "type": "VEC3"
    },
    {
      "bufferView": 26,
      "componentType": 5126,
      "count": 296,
      "type": "VEC2"
    },
    {
      "bufferView": 27,
      "componentType": 5125,
      "count": 930,
      "type": "SCALAR"
    },
    {
      "bufferView": 28,
      "componentType": 5126,
      "count": 4,
      "type": "VEC3",
      "min": [
        -284.1512756347656,
        -301.59124755859375,
        32.06135559082031
      ],
      "max": [
        284.1512756347656,
        251.5911865234375,
        167.9386444091797
      ]
    },
    {
      "bufferView": 29,
      "componentType": 5126,
      "count": 4,
      "type": "VEC3"
    },
    {
      "bufferView": 30,
      "componentType": 5126,
      "count": 4,
      "type": "VEC2"
    },
    {
      "bufferView": 31,
      "componentType": 5125,
      "count": 6,
      "type": "SCALAR"
    },
    {
      "bufferView": 32,
      "componentType": 5126,
      "count": 4,
      "type": "VEC3",
      "min": [
        -143.82470703125,
        -248.8095703125,
        -36.90476989746094
      ],
      "max": [
        243.82473754882812,
        198.80953979492188,
        186.90475463867188
      ]
    },
    {
      "bufferView": 33,
      "componentType": 5126,
      "count": 4,
      "type": "VEC3"
    },
    {
      "bufferView": 34,
      "componentType": 5126,
      "count": 4,
      "type": "VEC2"
    },
    {
      "bufferView": 35,
      "componentType": 5125,
      "count": 6,
      "type": "SCALAR"
    },
    {
      "bufferView": 36,
      "componentType": 5126,
      "count": 4,
      "type": "VEC3",
      "min": [
        -166.18341064453125,
        -198.80955505371094,
        42.07383728027344
      ],
      "max": [
        266.1834411621094,
        248.8095703125,
        157.92616271972656
      ]
    },
    {
      "bufferView": 37,
      "componentType": 5126,
      "count": 4,
      "type": "VEC3"
    },
    {
      "bufferView": 38,
      "componentType": 5126,
      "count": 4,
      "type": "VEC2"
    },
    {
      "bufferView": 39,
      "componentType": 5125,
      "count": 6,
      "type": "SCALAR"
    },
    {
      "bufferView": 40,
      "componentType": 5126,
      "count": 4,
      "type": "VEC3",
      "min": [
        -262.983642578125,
        -235.9459686279297,
        -35.46491241455078
      ],
      "max": [
        282.983642578125,
        235.94595336914062,
        285.4648742675781
      ]
    },
    {
      "bufferView": 41,
      "componentType": 5126,
      "count": 4,
      "type": "VEC3"
    },
    {
      "bufferView": 42,
      "componentType": 5126,
      "count": 4,
      "type": "VEC2"
    },
    {
      "bufferView": 43,
      "componentType": 5125,
      "count": 6,
      "type": "SCALAR"
    },
    {
      "bufferView": 44,
      "componentType": 5126,
      "count": 4,
      "type": "VEC3",
      "min": [
        -100.662109375,
        -200.66212463378906,
        99.9999771118164
      ],
      "max": [
        300.66217041015625,
        200.66212463378906,
        100.0000228881836
      ]
    },
    {
      "bufferView": 45,
      "componentType": 5126,
      "count": 4,
      "type": "VEC3"
    },
    {
      "bufferView": 46,
      "componentType": 5126,
      "count": 4,
      "type": "VEC2"
    },
    {
      "bufferView": 47,
      "componentType": 5125,
      "count": 6,
      "type": "SCALAR"
    },
    {
      "bufferView": 48,
      "componentType": 5126,
      "count": 4,
      "type": "VEC3",
      "min": [
        -146.60801696777344,
        -196.60801696777344,
        74.99999237060547
      ],
      "max": [
        246.60801696777344,
        196.60801696777344,
        75.00000762939453
      ]
    },
    {
      "bufferView": 49,
      "componentType": 5126,
      "count": 4,
      "type": "VEC3"
    },
    {
      "bufferView": 50,
      "componentType": 5126,
      "count": 4,
      "type": "VEC2"
    },
    {
      "bufferView": 51,
      "componentType": 5125,
      "count": 6,
      "type": "SCALAR"
    }
  ]
}