{
  "asset": {
    "version": "2.0",
    "generator": "convert-model-json-to-gltf-v1"
  },
  "scene": 0,
  "scenes": [
    {
      "nodes": [
        0
      ]
    }
  ],
  "nodes": [
    {
      "name": "NightmareSpiderBoss",
      "mesh": 0
    }
  ],
  "meshes": [
    {
      "name": "NightmareSpiderBoss",
      "primitives": [
        {
          "attributes": {
            "POSITION": 0,
            "NORMAL": 1,
            "TEXCOORD_0": 2
          },
          "indices": 3,
          "material": 0
        },
        {
          "attributes": {
            "POSITION": 4,
            "NORMAL": 5,
            "TEXCOORD_0": 6
          },
          "indices": 7,
          "material": 1
        }
      ]
    }
  ],
  "materials": [
    {
      "pbrMetallicRoughness": {
        "baseColorFactor": [
          1,
          1,
          1,
          1
        ],
        "metallicFactor": 0,
        "roughnessFactor": 1,
        "baseColorTexture": {
          "index": 0
        }
      }
    },
    {
      "pbrMetallicRoughness": {
        "baseColorFactor": [
          1,
          1,
          1,
          1
        ],
        "metallicFactor": 0,
        "roughnessFactor": 1,
        "baseColorTexture": {
          "index": 1
        }
      }
    }
  ],
  "samplers": [
    {
      "magFilter": 9729,
      "minFilter": 9987,
      "wrapS": 10497,
      "wrapT": 10497
    }
  ],
  "images": [
    {
      "uri": "../textures/NightmarespiderBossArmor.png"
    },
    {
      "uri": "../textures/NightmarespiderBoss.png"
    }
  ],
  "textures": [
    {
      "sampler": 0,
      "source": 0
    },
    {
      "sampler": 0,
      "source": 1
    }
  ],
  "buffers": [
    {
      "uri": "NightmareSpiderBoss_mdx.bin",
      "byteLength": 141240
    }
  ],
  "bufferViews": [
    {
      "buffer": 0,
      "byteOffset": 0,
      "byteLength": 9012,
      "target": 34962
    },
    {
      "buffer": 0,
      "byteOffset": 9012,
      "byteLength": 9012,
      "target": 34962
    },
    {
      "buffer": 0,
      "byteOffset": 18024,
      "byteLength": 6008,
      "target": 34962
    },
    {
      "buffer": 0,
      "byteOffset": 24032,
      "byteLength": 9576,
      "target": 34963
    },
    {
      "buffer": 0,
      "byteOffset": 33608,
      "byteLength": 27780,
      "target": 34962
    },
    {
      "buffer": 0,
      "byteOffset": 61388,
      "byteLength": 27780,
      "target": 34962
    },
    {
      "buffer": 0,
      "byteOffset": 89168,
      "byteLength": 18520,
      "target": 34962
    },
    {
      "buffer": 0,
      "byteOffset": 107688,
      "byteLength": 33552,
      "target": 34963
    }
  ],
  "accessors": [
    {
      "bufferView": 0,
      "componentType": 5126,
      "count": 751,
      "type": "VEC3",
      "min": [
        56.200538635253906,
        -98.70880889892578,
        33.617393493652344
      ],
      "max": [
        120.01622009277344,
        98.70893096923828,
        180.74423217773438
      ]
    },
    {
      "bufferView": 1,
      "componentType": 5126,
      "count": 751,
      "type": "VEC3"
    },
    {
      "bufferView": 2,
      "componentType": 5126,
      "count": 751,
      "type": "VEC2"
    },
    {
      "bufferView": 3,
      "componentType": 5125,
      "count": 2394,
      "type": "SCALAR"
    },
    {
      "bufferView": 4,
      "componentType": 5126,
      "count": 2315,
      "type": "VEC3",
      "min": [
        -150.44369506835938,
        -114.2044448852539,
        -8.57516860961914
      ],
      "max": [
        109.10936737060547,
        114.2044906616211,
        170.7682647705078
      ]
    },
    {
      "bufferView": 5,
      "componentType": 5126,
      "count": 2315,
      "type": "VEC3"
    },
    {
      "bufferView": 6,
      "componentType": 5126,
      "count": 2315,
      "type": "VEC2"
    },
    {
      "bufferView": 7,
      "componentType": 5125,
      "count": 8388,
      "type": "SCALAR"
    }
  ]
}