{
  "asset": {
    "version": "2.0",
    "generator": "convert-model-json-to-gltf-v1"
  },
  "scene": 0,
  "scenes": [
    {
      "nodes": [
        0
      ]
    }
  ],
  "nodes": [
    {
      "name": "Simple Sword",
      "mesh": 0
    }
  ],
  "meshes": [
    {
      "name": "Simple Sword",
      "primitives": [
        {
          "attributes": {
            "POSITION": 0,
            "NORMAL": 1,
            "TEXCOORD_0": 2
          },
          "indices": 3,
          "material": 0
        }
      ]
    }
  ],
  "materials": [
    {
      "pbrMetallicRoughness": {
        "baseColorFactor": [
          1,
          1,
          1,
          1
        ],
        "metallicFactor": 0,
        "roughnessFactor": 1,
        "baseColorTexture": {
          "index": 0
        }
      }
    }
  ],
  "samplers": [
    {
      "magFilter": 9729,
      "minFilter": 9987,
      "wrapS": 10497,
      "wrapT": 10497
    }
  ],
  "images": [
    {
      "uri": "../textures/WuLe_Jin6.png"
    }
  ],
  "textures": [
    {
      "sampler": 0,
      "source": 0
    }
  ],
  "buffers": [
    {
      "uri": "WuLe_Jin6_mdx.bin",
      "byteLength": 22136
    }
  ],
  "bufferViews": [
    {
      "buffer": 0,
      "byteOffset": 0,
      "byteLength": 5628,
      "target": 34962
    },
    {
      "buffer": 0,
      "byteOffset": 5628,
      "byteLength": 5628,
      "target": 34962
    },
    {
      "buffer": 0,
      "byteOffset": 11256,
      "byteLength": 3752,
      "target": 34962
    },
    {
      "buffer": 0,
      "byteOffset": 15008,
      "byteLength": 7128,
      "target": 34963
    }
  ],
  "accessors": [
    {
      "bufferView": 0,
      "componentType": 5126,
      "count": 469,
      "type": "VEC3",
      "min": [
        -7.519219398498535,
        -5.317046642303467,
        -11.616302490234375
      ],
      "max": [
        112.98974609375,
        5.740619659423828,
        11.625091552734375
      ]
    },
    {
      "bufferView": 1,
      "componentType": 5126,
      "count": 469,
      "type": "VEC3"
    },
    {
      "bufferView": 2,
      "componentType": 5126,
      "count": 469,
      "type": "VEC2"
    },
    {
      "bufferView": 3,
      "componentType": 5125,
      "count": 1782,
      "type": "SCALAR"
    }
  ]
}