{
  "asset": {
    "version": "2.0",
    "generator": "convert-model-json-to-gltf-v1"
  },
  "scene": 0,
  "scenes": [
    {
      "nodes": [
        0
      ]
    }
  ],
  "nodes": [
    {
      "name": "MilkshapeExported",
      "mesh": 0
    }
  ],
  "meshes": [
    {
      "name": "MilkshapeExported",
      "primitives": [
        {
          "attributes": {
            "POSITION": 0,
            "NORMAL": 1,
            "TEXCOORD_0": 2
          },
          "indices": 3,
          "material": 0
        },
        {
          "attributes": {
            "POSITION": 4,
            "NORMAL": 5,
            "TEXCOORD_0": 6
          },
          "indices": 7,
          "material": 0
        }
      ]
    }
  ],
  "materials": [
    {
      "pbrMetallicRoughness": {
        "baseColorFactor": [
          1,
          1,
          1,
          1
        ],
        "metallicFactor": 0,
        "roughnessFactor": 1,
        "baseColorTexture": {
          "index": 0
        }
      }
    }
  ],
  "samplers": [
    {
      "magFilter": 9729,
      "minFilter": 9987,
      "wrapS": 10497,
      "wrapT": 10497
    }
  ],
  "images": [
    {
      "uri": "../textures/war3mapImported_zm(164).png"
    }
  ],
  "textures": [
    {
      "sampler": 0,
      "source": 0
    }
  ],
  "buffers": [
    {
      "uri": "zm(164)_mdx.bin",
      "byteLength": 59040
    }
  ],
  "bufferViews": [
    {
      "buffer": 0,
      "byteOffset": 0,
      "byteLength": 1536,
      "target": 34962
    },
    {
      "buffer": 0,
      "byteOffset": 1536,
      "byteLength": 1536,
      "target": 34962
    },
    {
      "buffer": 0,
      "byteOffset": 3072,
      "byteLength": 1024,
      "target": 34962
    },
    {
      "buffer": 0,
      "byteOffset": 4096,
      "byteLength": 2016,
      "target": 34963
    },
    {
      "buffer": 0,
      "byteOffset": 6112,
      "byteLength": 11424,
      "target": 34962
    },
    {
      "buffer": 0,
      "byteOffset": 17536,
      "byteLength": 11424,
      "target": 34962
    },
    {
      "buffer": 0,
      "byteOffset": 28960,
      "byteLength": 7616,
      "target": 34962
    },
    {
      "buffer": 0,
      "byteOffset": 36576,
      "byteLength": 22464,
      "target": 34963
    }
  ],
  "accessors": [
    {
      "bufferView": 0,
      "componentType": 5126,
      "count": 128,
      "type": "VEC3",
      "min": [
        -122.5,
        -180,
        -47.5
      ],
      "max": [
        -10.625,
        180,
        118
      ]
    },
    {
      "bufferView": 1,
      "componentType": 5126,
      "count": 128,
      "type": "VEC3"
    },
    {
      "bufferView": 2,
      "componentType": 5126,
      "count": 128,
      "type": "VEC2"
    },
    {
      "bufferView": 3,
      "componentType": 5125,
      "count": 504,
      "type": "SCALAR"
    },
    {
      "bufferView": 4,
      "componentType": 5126,
      "count": 952,
      "type": "VEC3",
      "min": [
        -50.75,
        -79.5,
        -19.5
      ],
      "max": [
        -13.0625,
        79.5,
        62
      ]
    },
    {
      "bufferView": 5,
      "componentType": 5126,
      "count": 952,
      "type": "VEC3"
    },
    {
      "bufferView": 6,
      "componentType": 5126,
      "count": 952,
      "type": "VEC2"
    },
    {
      "bufferView": 7,
      "componentType": 5125,
      "count": 5616,
      "type": "SCALAR"
    }
  ]
}